<?xml version="1.0" encoding="UTF-8" standalone="no"?>
<!DOCTYPE svg PUBLIC "-//W3C//DTD SVG 1.1//EN"
 "http://www.w3.org/Graphics/SVG/1.1/DTD/svg11.dtd">
<!-- Generated by graphviz version 2.44.1 (20200629.0846)
 -->
<!-- Pages: 1 -->
<svg width="4422pt" height="740pt"
 viewBox="0.00 0.00 4422.04 740.00" xmlns="http://www.w3.org/2000/svg" xmlns:xlink="http://www.w3.org/1999/xlink">
<g id="graph0" class="graph" transform="scale(1 1) rotate(0) translate(4 736)">
<polygon fill="white" stroke="transparent" points="-4,4 -4,-736 4418.04,-736 4418.04,4 -4,4"/>
<!-- Sliver Queen -->
<g id="node1" class="node">
<title>Sliver Queen</title>
<ellipse fill="none" stroke="black" cx="1563" cy="-627" rx="57.39" ry="18"/>
<text text-anchor="middle" x="1563" y="-623.3" font-family="Times New Roman,serif" font-size="14.00">Sliver Queen</text>
</g>
<!-- Blur Sliver -->
<g id="node2" class="node">
<title>Blur Sliver</title>
<ellipse fill="none" stroke="black" cx="1534" cy="-192" rx="48.99" ry="18"/>
<text text-anchor="middle" x="1534" y="-188.3" font-family="Times New Roman,serif" font-size="14.00">Blur Sliver</text>
</g>
<!-- Sliver Queen&#45;&gt;Blur Sliver -->
<g id="edge1" class="edge">
<title>Sliver Queen&#45;&gt;Blur Sliver</title>
<path fill="none" stroke="black" d="M1497.94,-620.51C1194.18,-593.73 -61.58,-469.48 137,-261 183.82,-211.85 1215.07,-196.68 1474.96,-193.63"/>
<polygon fill="black" stroke="black" points="1498.08,-624.04 1508.34,-621.43 1498.69,-617.07 1498.08,-624.04"/>
<polygon fill="black" stroke="black" points="1475.36,-197.12 1485.31,-193.51 1475.27,-190.12 1475.36,-197.12"/>
<text text-anchor="middle" x="265.5" y="-405.8" font-family="Times New Roman,serif" font-size="14.00">5</text>
</g>
<!-- Gemhide Sliver -->
<g id="node3" class="node">
<title>Gemhide Sliver</title>
<ellipse fill="none" stroke="black" cx="1624" cy="-279" rx="66.09" ry="18"/>
<text text-anchor="middle" x="1624" y="-275.3" font-family="Times New Roman,serif" font-size="14.00">Gemhide Sliver</text>
</g>
<!-- Sliver Queen&#45;&gt;Gemhide Sliver -->
<g id="edge2" class="edge">
<title>Sliver Queen&#45;&gt;Gemhide Sliver</title>
<path fill="none" stroke="black" d="M1531.38,-603.82C1517.23,-592 1501.98,-576.15 1494,-558 1466.09,-494.49 1460.84,-465.4 1489,-402 1508.93,-357.14 1554.4,-321.79 1587.07,-300.93"/>
<polygon fill="black" stroke="black" points="1529.51,-606.81 1539.51,-610.31 1533.87,-601.34 1529.51,-606.81"/>
<polygon fill="black" stroke="black" points="1589.26,-303.69 1595.91,-295.44 1585.57,-297.74 1589.26,-303.69"/>
<text text-anchor="middle" x="1479.5" y="-449.3" font-family="Times New Roman,serif" font-size="14.00">8</text>
</g>
<!-- Heartstone -->
<g id="node4" class="node">
<title>Heartstone</title>
<ellipse fill="none" stroke="black" cx="1845" cy="-366" rx="50.09" ry="18"/>
<text text-anchor="middle" x="1845" y="-362.3" font-family="Times New Roman,serif" font-size="14.00">Heartstone</text>
</g>
<!-- Sliver Queen&#45;&gt;Heartstone -->
<g id="edge3" class="edge">
<title>Sliver Queen&#45;&gt;Heartstone</title>
<path fill="none" stroke="black" d="M1630.43,-625.4C1685.63,-621.15 1761.74,-606.08 1807,-558 1849.23,-513.14 1850.59,-435.38 1847.87,-394.27"/>
<polygon fill="black" stroke="black" points="1630.12,-621.91 1620.38,-626.07 1630.59,-628.89 1630.12,-621.91"/>
<polygon fill="black" stroke="black" points="1851.35,-393.87 1847.07,-384.18 1844.38,-394.43 1851.35,-393.87"/>
<text text-anchor="middle" x="1843.5" y="-492.8" font-family="Times New Roman,serif" font-size="14.00">7</text>
</g>
<!-- Reflex Sliver -->
<g id="node5" class="node">
<title>Reflex Sliver</title>
<ellipse fill="none" stroke="black" cx="1741" cy="-540" rx="57.39" ry="18"/>
<text text-anchor="middle" x="1741" y="-536.3" font-family="Times New Roman,serif" font-size="14.00">Reflex Sliver</text>
</g>
<!-- Sliver Queen&#45;&gt;Reflex Sliver -->
<g id="edge4" class="edge">
<title>Sliver Queen&#45;&gt;Reflex Sliver</title>
<path fill="none" stroke="black" d="M1616.8,-612.7C1635.14,-607.18 1655.44,-599.94 1673,-591 1687.64,-583.54 1702.5,-573.03 1714.58,-563.56"/>
<polygon fill="black" stroke="black" points="1615.75,-609.36 1607.13,-615.51 1617.7,-616.08 1615.75,-609.36"/>
<polygon fill="black" stroke="black" points="1716.86,-566.22 1722.46,-557.23 1712.47,-560.76 1716.86,-566.22"/>
<text text-anchor="middle" x="1699.5" y="-579.8" font-family="Times New Roman,serif" font-size="14.00">4</text>
</g>
<!-- Manaweft Sliver -->
<g id="node6" class="node">
<title>Manaweft Sliver</title>
<ellipse fill="none" stroke="black" cx="1722" cy="-453" rx="69.59" ry="18"/>
<text text-anchor="middle" x="1722" y="-449.3" font-family="Times New Roman,serif" font-size="14.00">Manaweft Sliver</text>
</g>
<!-- Sliver Queen&#45;&gt;Manaweft Sliver -->
<g id="edge5" class="edge">
<title>Sliver Queen&#45;&gt;Manaweft Sliver</title>
<path fill="none" stroke="black" d="M1587.83,-602.46C1601.18,-589.57 1617.77,-573.18 1632,-558 1656.65,-531.7 1683.52,-500.25 1701.43,-478.88"/>
<polygon fill="black" stroke="black" points="1585.18,-600.15 1580.39,-609.6 1590.03,-605.2 1585.18,-600.15"/>
<polygon fill="black" stroke="black" points="1704.34,-480.85 1708.06,-470.93 1698.96,-476.37 1704.34,-480.85"/>
<text text-anchor="middle" x="1667.5" y="-536.3" font-family="Times New Roman,serif" font-size="14.00">7</text>
</g>
<!-- Ashnods Altar -->
<g id="node7" class="node">
<title>Ashnods Altar</title>
<ellipse fill="none" stroke="black" cx="1737" cy="-18" rx="63.89" ry="18"/>
<text text-anchor="middle" x="1737" y="-14.3" font-family="Times New Roman,serif" font-size="14.00">Ashnods Altar</text>
</g>
<!-- Sliver Queen&#45;&gt;Ashnods Altar -->
<g id="edge6" class="edge">
<title>Sliver Queen&#45;&gt;Ashnods Altar</title>
<path fill="none" stroke="black" d="M1495.47,-626.29C1257.67,-627.01 459.9,-626.64 207,-591 129.44,-580.07 38,-619.33 38,-541 38,-541 38,-541 38,-104 38,-21.4 1335.98,-18.26 1662.94,-18.77"/>
<polygon fill="black" stroke="black" points="1495.71,-629.79 1505.7,-626.26 1495.68,-622.79 1495.71,-629.79"/>
<polygon fill="black" stroke="black" points="1663.24,-22.27 1673.24,-18.79 1663.25,-15.27 1663.24,-22.27"/>
<text text-anchor="middle" x="41.5" y="-318.8" font-family="Times New Roman,serif" font-size="14.00">3</text>
</g>
<!-- Cloudshredder Sliver -->
<g id="node8" class="node">
<title>Cloudshredder Sliver</title>
<ellipse fill="none" stroke="black" cx="1874" cy="-192" rx="87.99" ry="18"/>
<text text-anchor="middle" x="1874" y="-188.3" font-family="Times New Roman,serif" font-size="14.00">Cloudshredder Sliver</text>
</g>
<!-- Sliver Queen&#45;&gt;Cloudshredder Sliver -->
<g id="edge7" class="edge">
<title>Sliver Queen&#45;&gt;Cloudshredder Sliver</title>
<path fill="none" stroke="black" d="M1627.38,-620.05C1780.36,-605.49 2153,-567.32 2153,-541 2153,-541 2153,-541 2153,-408.5 2153,-341.86 2221.7,-312.99 2180,-261 2153.26,-227.67 2044.19,-209.64 1963.85,-200.69"/>
<polygon fill="black" stroke="black" points="1626.81,-616.59 1617.19,-621.02 1627.47,-623.56 1626.81,-616.59"/>
<polygon fill="black" stroke="black" points="1964.03,-197.19 1953.71,-199.59 1963.27,-204.14 1964.03,-197.19"/>
<text text-anchor="middle" x="2156.5" y="-405.8" font-family="Times New Roman,serif" font-size="14.00">4</text>
</g>
<!-- Biomancer&#39;s Familiar -->
<g id="node9" class="node">
<title>Biomancer&#39;s Familiar</title>
<ellipse fill="none" stroke="black" cx="1598" cy="-105" rx="87.18" ry="18"/>
<text text-anchor="middle" x="1598" y="-101.3" font-family="Times New Roman,serif" font-size="14.00">Biomancer&#39;s Familiar</text>
</g>
<!-- Sliver Queen&#45;&gt;Biomancer&#39;s Familiar -->
<g id="edge8" class="edge">
<title>Sliver Queen&#45;&gt;Biomancer&#39;s Familiar</title>
<path fill="none" stroke="black" d="M1495.58,-625.7C1206.21,-623.98 84,-612.69 84,-541 84,-541 84,-541 84,-408.5 84,-341.6 70.49,-311.81 114,-261 141.44,-228.96 161.84,-237.25 203,-228 681.01,-120.53 1270.92,-106.66 1500.32,-105.62"/>
<polygon fill="black" stroke="black" points="1495.91,-629.2 1505.93,-625.76 1495.95,-622.2 1495.91,-629.2"/>
<polygon fill="black" stroke="black" points="1500.66,-109.12 1510.64,-105.58 1500.63,-102.12 1500.66,-109.12"/>
<text text-anchor="middle" x="87.5" y="-362.3" font-family="Times New Roman,serif" font-size="14.00">2</text>
</g>
<!-- Intruder Alarm -->
<g id="node10" class="node">
<title>Intruder Alarm</title>
<ellipse fill="none" stroke="black" cx="1103" cy="-366" rx="63.89" ry="18"/>
<text text-anchor="middle" x="1103" y="-362.3" font-family="Times New Roman,serif" font-size="14.00">Intruder Alarm</text>
</g>
<!-- Sliver Queen&#45;&gt;Intruder Alarm -->
<g id="edge9" class="edge">
<title>Sliver Queen&#45;&gt;Intruder Alarm</title>
<path fill="none" stroke="black" d="M1512.36,-611.16C1495.67,-605.61 1477.25,-598.74 1461,-591 1332.32,-529.66 1192.59,-432.28 1132.83,-388.99"/>
<polygon fill="black" stroke="black" points="1511.35,-614.51 1521.94,-614.27 1513.51,-607.86 1511.35,-614.51"/>
<polygon fill="black" stroke="black" points="1134.75,-386.06 1124.6,-383.01 1130.63,-391.72 1134.75,-386.06"/>
<text text-anchor="middle" x="1305.5" y="-492.8" font-family="Times New Roman,serif" font-size="14.00">2</text>
</g>
<!-- Mana Echoes -->
<g id="node11" class="node">
<title>Mana Echoes</title>
<ellipse fill="none" stroke="black" cx="1563" cy="-540" rx="59.59" ry="18"/>
<text text-anchor="middle" x="1563" y="-536.3" font-family="Times New Roman,serif" font-size="14.00">Mana Echoes</text>
</g>
<!-- Sliver Queen&#45;&gt;Mana Echoes -->
<g id="edge10" class="edge">
<title>Sliver Queen&#45;&gt;Mana Echoes</title>
<path fill="none" stroke="black" d="M1563,-598.73C1563,-589.06 1563,-578.17 1563,-568.48"/>
<polygon fill="black" stroke="black" points="1559.5,-598.8 1563,-608.8 1566.5,-598.8 1559.5,-598.8"/>
<polygon fill="black" stroke="black" points="1566.5,-568.18 1563,-558.18 1559.5,-568.18 1566.5,-568.18"/>
<text text-anchor="middle" x="1566.5" y="-579.8" font-family="Times New Roman,serif" font-size="14.00">1</text>
</g>
<!-- Blur Sliver&#45;&gt;Biomancer&#39;s Familiar -->
<g id="edge11" class="edge">
<title>Blur Sliver&#45;&gt;Biomancer&#39;s Familiar</title>
<path fill="none" stroke="black" d="M1552.79,-166.05C1561.09,-155.03 1570.83,-142.09 1579.13,-131.06"/>
<polygon fill="black" stroke="black" points="1549.86,-164.11 1546.64,-174.21 1555.46,-168.32 1549.86,-164.11"/>
<polygon fill="black" stroke="black" points="1581.94,-133.14 1585.16,-123.05 1576.35,-128.93 1581.94,-133.14"/>
<text text-anchor="middle" x="1572.5" y="-144.8" font-family="Times New Roman,serif" font-size="14.00">1</text>
</g>
<!-- Gemhide Sliver&#45;&gt;Blur Sliver -->
<g id="edge12" class="edge">
<title>Gemhide Sliver&#45;&gt;Blur Sliver</title>
<path fill="none" stroke="black" d="M1599.05,-254.44C1586.38,-242.47 1571.04,-227.98 1558.44,-216.08"/>
<polygon fill="black" stroke="black" points="1596.97,-257.29 1606.65,-261.61 1601.78,-252.2 1596.97,-257.29"/>
<polygon fill="black" stroke="black" points="1560.67,-213.37 1550.99,-209.05 1555.86,-218.46 1560.67,-213.37"/>
<text text-anchor="middle" x="1587.5" y="-231.8" font-family="Times New Roman,serif" font-size="14.00">3</text>
</g>
<!-- Gemhide Sliver&#45;&gt;Cloudshredder Sliver -->
<g id="edge13" class="edge">
<title>Gemhide Sliver&#45;&gt;Cloudshredder Sliver</title>
<path fill="none" stroke="black" d="M1673.35,-261.22C1716.03,-246.71 1777.56,-225.79 1821.22,-210.95"/>
<polygon fill="black" stroke="black" points="1671.95,-258 1663.61,-264.53 1674.21,-264.63 1671.95,-258"/>
<polygon fill="black" stroke="black" points="1822.46,-214.22 1830.8,-207.69 1820.2,-207.59 1822.46,-214.22"/>
<text text-anchor="middle" x="1766.5" y="-231.8" font-family="Times New Roman,serif" font-size="14.00">2</text>
</g>
<!-- Gemhide Sliver&#45;&gt;Biomancer&#39;s Familiar -->
<g id="edge14" class="edge">
<title>Gemhide Sliver&#45;&gt;Biomancer&#39;s Familiar</title>
<path fill="none" stroke="black" d="M1619.86,-250.64C1614.99,-218.41 1606.95,-165.18 1602.09,-133.07"/>
<polygon fill="black" stroke="black" points="1616.46,-251.51 1621.41,-260.88 1623.38,-250.47 1616.46,-251.51"/>
<polygon fill="black" stroke="black" points="1605.53,-132.42 1600.58,-123.05 1598.61,-133.46 1605.53,-132.42"/>
<text text-anchor="middle" x="1616.5" y="-188.3" font-family="Times New Roman,serif" font-size="14.00">1</text>
</g>
<!-- Heartstone&#45;&gt;Blur Sliver -->
<g id="edge18" class="edge">
<title>Heartstone&#45;&gt;Blur Sliver</title>
<path fill="none" stroke="black" d="M1811.84,-344.94C1783.12,-327.33 1745.36,-303.55 1740,-297 1719.02,-271.4 1737.83,-248.69 1712,-228 1674.02,-197.58 1651.68,-219.75 1604,-210 1597.17,-208.6 1589.99,-207.01 1582.94,-205.37"/>
<polygon fill="black" stroke="black" points="1810.06,-347.95 1820.42,-350.17 1813.71,-341.97 1810.06,-347.95"/>
<polygon fill="black" stroke="black" points="1583.3,-201.86 1572.76,-202.95 1581.68,-208.67 1583.3,-201.86"/>
<text text-anchor="middle" x="1743.5" y="-275.3" font-family="Times New Roman,serif" font-size="14.00">2</text>
</g>
<!-- Heartstone&#45;&gt;Gemhide Sliver -->
<g id="edge19" class="edge">
<title>Heartstone&#45;&gt;Gemhide Sliver</title>
<path fill="none" stroke="black" d="M1801,-349.11C1786.75,-343.54 1771.01,-336.93 1757,-330 1745.39,-324.25 1743.79,-320.37 1732,-315 1715.28,-307.39 1696.42,-300.69 1679.19,-295.23"/>
<polygon fill="black" stroke="black" points="1800,-352.48 1810.59,-352.8 1802.51,-345.94 1800,-352.48"/>
<polygon fill="black" stroke="black" points="1679.85,-291.77 1669.26,-292.17 1677.79,-298.46 1679.85,-291.77"/>
<text text-anchor="middle" x="1760.5" y="-318.8" font-family="Times New Roman,serif" font-size="14.00">3</text>
</g>
<!-- Heartstone&#45;&gt;Ashnods Altar -->
<g id="edge20" class="edge">
<title>Heartstone&#45;&gt;Ashnods Altar</title>
<path fill="none" stroke="black" d="M1818.61,-342.51C1793.98,-318.88 1761,-279.25 1761,-236.5 1761,-236.5 1761,-236.5 1761,-104 1761,-83.94 1754.73,-62.18 1748.6,-45.7"/>
<polygon fill="black" stroke="black" points="1816.23,-345.08 1825.94,-349.32 1820.99,-339.95 1816.23,-345.08"/>
<polygon fill="black" stroke="black" points="1751.77,-44.21 1744.86,-36.18 1745.26,-46.77 1751.77,-44.21"/>
<text text-anchor="middle" x="1764.5" y="-188.3" font-family="Times New Roman,serif" font-size="14.00">1</text>
</g>
<!-- Heartstone&#45;&gt;Cloudshredder Sliver -->
<g id="edge22" class="edge">
<title>Heartstone&#45;&gt;Cloudshredder Sliver</title>
<path fill="none" stroke="black" d="M1845.87,-337.76C1846.9,-316.66 1849.14,-286.78 1854,-261 1856.6,-247.21 1860.85,-232.21 1864.77,-219.81"/>
<polygon fill="black" stroke="black" points="1842.37,-337.78 1845.43,-347.93 1849.36,-338.09 1842.37,-337.78"/>
<polygon fill="black" stroke="black" points="1868.16,-220.69 1867.94,-210.1 1861.51,-218.52 1868.16,-220.69"/>
<text text-anchor="middle" x="1857.5" y="-275.3" font-family="Times New Roman,serif" font-size="14.00">2</text>
</g>
<!-- Grinning Ignus -->
<g id="node12" class="node">
<title>Grinning Ignus</title>
<ellipse fill="none" stroke="black" cx="2107" cy="-279" rx="64.19" ry="18"/>
<text text-anchor="middle" x="2107" y="-275.3" font-family="Times New Roman,serif" font-size="14.00">Grinning Ignus</text>
</g>
<!-- Heartstone&#45;&gt;Grinning Ignus -->
<g id="edge15" class="edge">
<title>Heartstone&#45;&gt;Grinning Ignus</title>
<path fill="none" stroke="black" d="M1890.4,-350.27C1936.81,-335.21 2008.73,-311.88 2056.82,-296.28"/>
<polygon fill="black" stroke="black" points="1889.31,-346.94 1880.88,-353.36 1891.47,-353.6 1889.31,-346.94"/>
<polygon fill="black" stroke="black" points="2057.97,-299.59 2066.4,-293.17 2055.81,-292.93 2057.97,-299.59"/>
<text text-anchor="middle" x="1994.5" y="-318.8" font-family="Times New Roman,serif" font-size="14.00">9</text>
</g>
<!-- Cloud Key -->
<g id="node13" class="node">
<title>Cloud Key</title>
<ellipse fill="none" stroke="black" cx="2431" cy="-279" rx="50.09" ry="18"/>
<text text-anchor="middle" x="2431" y="-275.3" font-family="Times New Roman,serif" font-size="14.00">Cloud Key</text>
</g>
<!-- Heartstone&#45;&gt;Cloud Key -->
<g id="edge16" class="edge">
<title>Heartstone&#45;&gt;Cloud Key</title>
<path fill="none" stroke="black" d="M1903.34,-360.4C2001.04,-352.03 2203.62,-331.91 2372,-297 2376.17,-296.14 2380.47,-295.13 2384.77,-294.04"/>
<polygon fill="black" stroke="black" points="1903.03,-356.91 1893.37,-361.24 1903.62,-363.88 1903.03,-356.91"/>
<polygon fill="black" stroke="black" points="2385.94,-297.35 2394.71,-291.4 2384.14,-290.59 2385.94,-297.35"/>
<text text-anchor="middle" x="2275.5" y="-318.8" font-family="Times New Roman,serif" font-size="14.00">3</text>
</g>
<!-- Basalt Monolith -->
<g id="node14" class="node">
<title>Basalt Monolith</title>
<ellipse fill="none" stroke="black" cx="2295" cy="-279" rx="67.69" ry="18"/>
<text text-anchor="middle" x="2295" y="-275.3" font-family="Times New Roman,serif" font-size="14.00">Basalt Monolith</text>
</g>
<!-- Heartstone&#45;&gt;Basalt Monolith -->
<g id="edge17" class="edge">
<title>Heartstone&#45;&gt;Basalt Monolith</title>
<path fill="none" stroke="black" d="M1898.01,-354.99C1981.28,-339.26 2142.41,-308.82 2231.65,-291.97"/>
<polygon fill="black" stroke="black" points="1897.32,-351.55 1888.15,-356.85 1898.62,-358.43 1897.32,-351.55"/>
<polygon fill="black" stroke="black" points="2232.46,-295.37 2241.64,-290.08 2231.16,-288.5 2232.46,-295.37"/>
<text text-anchor="middle" x="2099.5" y="-318.8" font-family="Times New Roman,serif" font-size="14.00">4</text>
</g>
<!-- Composite Golem -->
<g id="node15" class="node">
<title>Composite Golem</title>
<ellipse fill="none" stroke="black" cx="1947" cy="-279" rx="77.19" ry="18"/>
<text text-anchor="middle" x="1947" y="-275.3" font-family="Times New Roman,serif" font-size="14.00">Composite Golem</text>
</g>
<!-- Heartstone&#45;&gt;Composite Golem -->
<g id="edge21" class="edge">
<title>Heartstone&#45;&gt;Composite Golem</title>
<path fill="none" stroke="black" d="M1872.26,-342.29C1886.86,-330.12 1904.8,-315.16 1919.45,-302.96"/>
<polygon fill="black" stroke="black" points="1869.63,-339.92 1864.19,-349.01 1874.11,-345.3 1869.63,-339.92"/>
<polygon fill="black" stroke="black" points="1921.76,-305.59 1927.2,-296.5 1917.28,-300.21 1921.76,-305.59"/>
<text text-anchor="middle" x="1905.5" y="-318.8" font-family="Times New Roman,serif" font-size="14.00">1</text>
</g>
<!-- Reflex Sliver&#45;&gt;Gemhide Sliver -->
<g id="edge25" class="edge">
<title>Reflex Sliver&#45;&gt;Gemhide Sliver</title>
<path fill="none" stroke="black" d="M1699.06,-520.5C1678.65,-509.23 1655.8,-492.77 1643,-471 1612.66,-419.41 1615.54,-346.19 1619.96,-307.09"/>
<polygon fill="black" stroke="black" points="1697.44,-523.6 1707.92,-525.16 1700.7,-517.41 1697.44,-523.6"/>
<polygon fill="black" stroke="black" points="1623.45,-307.37 1621.22,-297.01 1616.51,-306.5 1623.45,-307.37"/>
<text text-anchor="middle" x="1625.5" y="-405.8" font-family="Times New Roman,serif" font-size="14.00">2</text>
</g>
<!-- Reflex Sliver&#45;&gt;Heartstone -->
<g id="edge24" class="edge">
<title>Reflex Sliver&#45;&gt;Heartstone</title>
<path fill="none" stroke="black" d="M1765.27,-515.38C1777.11,-502.95 1790.93,-487 1801,-471 1816.5,-446.36 1828.82,-415.32 1836.44,-393.59"/>
<polygon fill="black" stroke="black" points="1762.67,-513.03 1758.2,-522.63 1767.69,-517.91 1762.67,-513.03"/>
<polygon fill="black" stroke="black" points="1839.78,-394.62 1839.7,-384.02 1833.16,-392.36 1839.78,-394.62"/>
<text text-anchor="middle" x="1822.5" y="-449.3" font-family="Times New Roman,serif" font-size="14.00">2</text>
</g>
<!-- Reflex Sliver&#45;&gt;Manaweft Sliver -->
<g id="edge23" class="edge">
<title>Reflex Sliver&#45;&gt;Manaweft Sliver</title>
<path fill="none" stroke="black" d="M1734.91,-511.73C1732.72,-501.96 1730.26,-490.94 1728.07,-481.17"/>
<polygon fill="black" stroke="black" points="1731.56,-512.8 1737.16,-521.8 1738.39,-511.28 1731.56,-512.8"/>
<polygon fill="black" stroke="black" points="1731.44,-480.17 1725.84,-471.18 1724.61,-481.7 1731.44,-480.17"/>
<text text-anchor="middle" x="1735.5" y="-492.8" font-family="Times New Roman,serif" font-size="14.00">2</text>
</g>
<!-- Manaweft Sliver&#45;&gt;Blur Sliver -->
<g id="edge61" class="edge">
<title>Manaweft Sliver&#45;&gt;Blur Sliver</title>
<path fill="none" stroke="black" d="M1657.07,-438.95C1642.48,-433.84 1627.83,-426.77 1616,-417 1555.42,-366.97 1539.59,-268.07 1535.46,-220.21"/>
<polygon fill="black" stroke="black" points="1656.03,-442.3 1666.62,-442.04 1658.18,-435.63 1656.03,-442.3"/>
<polygon fill="black" stroke="black" points="1538.93,-219.71 1534.69,-210 1531.95,-220.24 1538.93,-219.71"/>
<text text-anchor="middle" x="1561.5" y="-318.8" font-family="Times New Roman,serif" font-size="14.00">2</text>
</g>
<!-- Manaweft Sliver&#45;&gt;Heartstone -->
<g id="edge59" class="edge">
<title>Manaweft Sliver&#45;&gt;Heartstone</title>
<path fill="none" stroke="black" d="M1753.39,-430.31C1772.12,-417.37 1795.8,-401 1814.39,-388.16"/>
<polygon fill="black" stroke="black" points="1751.37,-427.45 1745.14,-436.01 1755.35,-433.21 1751.37,-427.45"/>
<polygon fill="black" stroke="black" points="1816.56,-390.91 1822.8,-382.34 1812.58,-385.15 1816.56,-390.91"/>
<text text-anchor="middle" x="1793.5" y="-405.8" font-family="Times New Roman,serif" font-size="14.00">3</text>
</g>
<!-- Manaweft Sliver&#45;&gt;Cloudshredder Sliver -->
<g id="edge60" class="edge">
<title>Manaweft Sliver&#45;&gt;Cloudshredder Sliver</title>
<path fill="none" stroke="black" d="M1716.39,-424.59C1711.92,-395.61 1709,-349.41 1727,-315 1733.18,-303.19 1740.57,-305.31 1751,-297 1784.6,-270.23 1822.17,-238.14 1846.85,-216.75"/>
<polygon fill="black" stroke="black" points="1713,-425.53 1718.15,-434.79 1719.9,-424.35 1713,-425.53"/>
<polygon fill="black" stroke="black" points="1849.44,-219.13 1854.69,-209.93 1844.85,-213.84 1849.44,-219.13"/>
<text text-anchor="middle" x="1730.5" y="-318.8" font-family="Times New Roman,serif" font-size="14.00">2</text>
</g>
<!-- Manaweft Sliver&#45;&gt;Intruder Alarm -->
<g id="edge62" class="edge">
<title>Manaweft Sliver&#45;&gt;Intruder Alarm</title>
<path fill="none" stroke="black" d="M1651.94,-442.38C1531.41,-425.83 1286.43,-392.19 1168.86,-376.04"/>
<polygon fill="black" stroke="black" points="1651.7,-445.88 1662.09,-443.77 1652.65,-438.94 1651.7,-445.88"/>
<polygon fill="black" stroke="black" points="1169.29,-372.57 1158.91,-374.68 1168.34,-379.51 1169.29,-372.57"/>
<text text-anchor="middle" x="1453.5" y="-405.8" font-family="Times New Roman,serif" font-size="14.00">1</text>
</g>
<!-- Biomancer&#39;s Familiar&#45;&gt;Ashnods Altar -->
<g id="edge49" class="edge">
<title>Biomancer&#39;s Familiar&#45;&gt;Ashnods Altar</title>
<path fill="none" stroke="black" d="M1633.1,-82.54C1654.48,-69.46 1681.68,-52.83 1702.88,-39.87"/>
<polygon fill="black" stroke="black" points="1631.18,-79.61 1624.47,-87.81 1634.83,-85.58 1631.18,-79.61"/>
<polygon fill="black" stroke="black" points="1704.86,-42.76 1711.56,-34.55 1701.21,-36.79 1704.86,-42.76"/>
<text text-anchor="middle" x="1678.5" y="-57.8" font-family="Times New Roman,serif" font-size="14.00">1</text>
</g>
<!-- Intruder Alarm&#45;&gt;Gemhide Sliver -->
<g id="edge50" class="edge">
<title>Intruder Alarm&#45;&gt;Gemhide Sliver</title>
<path fill="none" stroke="black" d="M1166.75,-354.6C1266.34,-338.35 1457.84,-307.11 1558.5,-290.69"/>
<polygon fill="black" stroke="black" points="1166.1,-351.16 1156.79,-356.22 1167.23,-358.07 1166.1,-351.16"/>
<polygon fill="black" stroke="black" points="1559.23,-294.11 1568.54,-289.05 1558.11,-287.2 1559.23,-294.11"/>
<text text-anchor="middle" x="1398.5" y="-318.8" font-family="Times New Roman,serif" font-size="14.00">1</text>
</g>
<!-- Atla Palani, Nest Tender -->
<g id="node29" class="node">
<title>Atla Palani, Nest Tender</title>
<ellipse fill="none" stroke="black" cx="732" cy="-279" rx="98.58" ry="18"/>
<text text-anchor="middle" x="732" y="-275.3" font-family="Times New Roman,serif" font-size="14.00">Atla Palani, Nest Tender</text>
</g>
<!-- Intruder Alarm&#45;&gt;Atla Palani, Nest Tender -->
<g id="edge51" class="edge">
<title>Intruder Alarm&#45;&gt;Atla Palani, Nest Tender</title>
<path fill="none" stroke="black" d="M1045.39,-351.8C979.41,-336.68 871.38,-311.93 800.97,-295.8"/>
<polygon fill="black" stroke="black" points="1044.73,-355.24 1055.26,-354.06 1046.29,-348.42 1044.73,-355.24"/>
<polygon fill="black" stroke="black" points="801.4,-292.31 790.87,-293.49 799.84,-299.13 801.4,-292.31"/>
<text text-anchor="middle" x="943.5" y="-318.8" font-family="Times New Roman,serif" font-size="14.00">1</text>
</g>
<!-- Ashnod's Altar -->
<g id="node30" class="node">
<title>Ashnod's Altar</title>
<ellipse fill="none" stroke="black" cx="918" cy="-279" rx="69.59" ry="18"/>
<text text-anchor="middle" x="918" y="-275.3" font-family="Times New Roman,serif" font-size="14.00">Ashnod's Altar</text>
</g>
<!-- Intruder Alarm&#45;&gt;Ashnod's Altar -->
<g id="edge52" class="edge">
<title>Intruder Alarm&#45;&gt;Ashnod's Altar</title>
<path fill="none" stroke="black" d="M1061.68,-346.02C1031.31,-332.06 990.19,-313.17 959.72,-299.17"/>
<polygon fill="black" stroke="black" points="1060.65,-349.39 1071.2,-350.39 1063.57,-343.03 1060.65,-349.39"/>
<polygon fill="black" stroke="black" points="961.18,-295.99 950.63,-294.99 958.26,-302.35 961.18,-295.99"/>
<text text-anchor="middle" x="1025.5" y="-318.8" font-family="Times New Roman,serif" font-size="14.00">1</text>
</g>
<!-- Chulane, Teller of Tales -->
<g id="node31" class="node">
<title>Chulane, Teller of Tales</title>
<ellipse fill="none" stroke="black" cx="1103" cy="-279" rx="97.48" ry="18"/>
<text text-anchor="middle" x="1103" y="-275.3" font-family="Times New Roman,serif" font-size="14.00">Chulane, Teller of Tales</text>
</g>
<!-- Intruder Alarm&#45;&gt;Chulane, Teller of Tales -->
<g id="edge53" class="edge">
<title>Intruder Alarm&#45;&gt;Chulane, Teller of Tales</title>
<path fill="none" stroke="black" d="M1103,-337.73C1103,-328.06 1103,-317.17 1103,-307.48"/>
<polygon fill="black" stroke="black" points="1099.5,-337.8 1103,-347.8 1106.5,-337.8 1099.5,-337.8"/>
<polygon fill="black" stroke="black" points="1106.5,-307.18 1103,-297.18 1099.5,-307.18 1106.5,-307.18"/>
<text text-anchor="middle" x="1106.5" y="-318.8" font-family="Times New Roman,serif" font-size="14.00">6</text>
</g>
<!-- Dream Stalker -->
<g id="node32" class="node">
<title>Dream Stalker</title>
<ellipse fill="none" stroke="black" cx="1280" cy="-279" rx="61.99" ry="18"/>
<text text-anchor="middle" x="1280" y="-275.3" font-family="Times New Roman,serif" font-size="14.00">Dream Stalker</text>
</g>
<!-- Intruder Alarm&#45;&gt;Dream Stalker -->
<g id="edge54" class="edge">
<title>Intruder Alarm&#45;&gt;Dream Stalker</title>
<path fill="none" stroke="black" d="M1142.98,-345.8C1172.03,-331.85 1211.18,-313.05 1240.19,-299.12"/>
<polygon fill="black" stroke="black" points="1141.33,-342.71 1133.83,-350.19 1144.36,-349.02 1141.33,-342.71"/>
<polygon fill="black" stroke="black" points="1241.73,-302.26 1249.23,-294.78 1238.7,-295.95 1241.73,-302.26"/>
<text text-anchor="middle" x="1206.5" y="-318.8" font-family="Times New Roman,serif" font-size="14.00">4</text>
</g>
<!-- Beast Whisperer -->
<g id="node33" class="node">
<title>Beast Whisperer</title>
<ellipse fill="none" stroke="black" cx="1431" cy="-279" rx="70.69" ry="18"/>
<text text-anchor="middle" x="1431" y="-275.3" font-family="Times New Roman,serif" font-size="14.00">Beast Whisperer</text>
</g>
<!-- Intruder Alarm&#45;&gt;Beast Whisperer -->
<g id="edge55" class="edge">
<title>Intruder Alarm&#45;&gt;Beast Whisperer</title>
<path fill="none" stroke="black" d="M1158.04,-350.74C1217.78,-335.25 1312.77,-310.64 1373.47,-294.91"/>
<polygon fill="black" stroke="black" points="1157.06,-347.37 1148.26,-353.27 1158.82,-354.15 1157.06,-347.37"/>
<polygon fill="black" stroke="black" points="1374.48,-298.26 1383.28,-292.37 1372.72,-291.49 1374.48,-298.26"/>
<text text-anchor="middle" x="1290.5" y="-318.8" font-family="Times New Roman,serif" font-size="14.00">6</text>
</g>
<!-- Guardian Project -->
<g id="node34" class="node">
<title>Guardian Project</title>
<ellipse fill="none" stroke="black" cx="218" cy="-279" rx="72.29" ry="18"/>
<text text-anchor="middle" x="218" y="-275.3" font-family="Times New Roman,serif" font-size="14.00">Guardian Project</text>
</g>
<!-- Intruder Alarm&#45;&gt;Guardian Project -->
<g id="edge56" class="edge">
<title>Intruder Alarm&#45;&gt;Guardian Project</title>
<path fill="none" stroke="black" d="M1029.76,-362.44C887.93,-356.67 566.2,-339.68 299,-297 292.76,-296 286.28,-294.85 279.81,-293.62"/>
<polygon fill="black" stroke="black" points="1029.94,-365.94 1040.07,-362.85 1030.22,-358.95 1029.94,-365.94"/>
<polygon fill="black" stroke="black" points="280.2,-290.13 269.71,-291.63 278.85,-297 280.2,-290.13"/>
<text text-anchor="middle" x="544.5" y="-318.8" font-family="Times New Roman,serif" font-size="14.00">6</text>
</g>
<!-- Glimpse of Nature -->
<g id="node35" class="node">
<title>Glimpse of Nature</title>
<ellipse fill="none" stroke="black" cx="385" cy="-279" rx="77.19" ry="18"/>
<text text-anchor="middle" x="385" y="-275.3" font-family="Times New Roman,serif" font-size="14.00">Glimpse of Nature</text>
</g>
<!-- Intruder Alarm&#45;&gt;Glimpse of Nature -->
<g id="edge57" class="edge">
<title>Intruder Alarm&#45;&gt;Glimpse of Nature</title>
<path fill="none" stroke="black" d="M1031.86,-359.84C914.52,-350.78 673.23,-329.78 471,-297 464.44,-295.94 457.61,-294.74 450.81,-293.49"/>
<polygon fill="black" stroke="black" points="1031.9,-363.36 1042.14,-360.63 1032.44,-356.38 1031.9,-363.36"/>
<polygon fill="black" stroke="black" points="451.35,-290.03 440.88,-291.63 450.06,-296.91 451.35,-290.03"/>
<text text-anchor="middle" x="717.5" y="-318.8" font-family="Times New Roman,serif" font-size="14.00">6</text>
</g>
<!-- Hell&#39;s Caretaker -->
<g id="node36" class="node">
<title>Hell&#39;s Caretaker</title>
<ellipse fill="none" stroke="black" cx="548" cy="-279" rx="67.69" ry="18"/>
<text text-anchor="middle" x="548" y="-275.3" font-family="Times New Roman,serif" font-size="14.00">Hell&#39;s Caretaker</text>
</g>
<!-- Intruder Alarm&#45;&gt;Hell&#39;s Caretaker -->
<g id="edge58" class="edge">
<title>Intruder Alarm&#45;&gt;Hell&#39;s Caretaker</title>
<path fill="none" stroke="black" d="M1035.12,-357.08C942.05,-345.83 769.75,-323.6 624,-297 618.51,-296 612.82,-294.88 607.13,-293.7"/>
<polygon fill="black" stroke="black" points="1034.9,-360.58 1045.25,-358.3 1035.74,-353.63 1034.9,-360.58"/>
<polygon fill="black" stroke="black" points="607.45,-290.19 596.94,-291.54 606,-297.04 607.45,-290.19"/>
<text text-anchor="middle" x="824.5" y="-318.8" font-family="Times New Roman,serif" font-size="14.00">1</text>
</g>
<!-- Training Grounds -->
<g id="node16" class="node">
<title>Training Grounds</title>
<ellipse fill="none" stroke="black" cx="2599" cy="-714" rx="75.29" ry="18"/>
<text text-anchor="middle" x="2599" y="-710.3" font-family="Times New Roman,serif" font-size="14.00">Training Grounds</text>
</g>
<!-- Training Grounds&#45;&gt;Sliver Queen -->
<g id="edge39" class="edge">
<title>Training Grounds&#45;&gt;Sliver Queen</title>
<path fill="none" stroke="black" d="M2513.36,-713.21C2369.86,-712.65 2071.96,-707.6 1822,-678 1750.59,-669.54 1669.33,-652.65 1617.18,-640.85"/>
<polygon fill="black" stroke="black" points="2513.41,-716.71 2523.42,-713.24 2513.44,-709.71 2513.41,-716.71"/>
<polygon fill="black" stroke="black" points="1617.68,-637.37 1607.15,-638.56 1616.12,-644.2 1617.68,-637.37"/>
<text text-anchor="middle" x="1825.5" y="-666.8" font-family="Times New Roman,serif" font-size="14.00">7</text>
</g>
<!-- Training Grounds&#45;&gt;Blur Sliver -->
<g id="edge42" class="edge">
<title>Training Grounds&#45;&gt;Blur Sliver</title>
<path fill="none" stroke="black" d="M2513.36,-712.49C2064.11,-709.52 0,-692.37 0,-628 0,-628 0,-628 0,-321.5 0,-222.17 105.47,-246.83 203,-228 328.66,-203.74 1232.96,-195.26 1474.71,-193.41"/>
<polygon fill="black" stroke="black" points="2513.65,-715.99 2523.67,-712.55 2513.7,-708.99 2513.65,-715.99"/>
<polygon fill="black" stroke="black" points="1475.07,-196.91 1485.04,-193.34 1475.02,-189.91 1475.07,-196.91"/>
<text text-anchor="middle" x="3.5" y="-449.3" font-family="Times New Roman,serif" font-size="14.00">2</text>
</g>
<!-- Training Grounds&#45;&gt;Gemhide Sliver -->
<g id="edge43" class="edge">
<title>Training Grounds&#45;&gt;Gemhide Sliver</title>
<path fill="none" stroke="black" d="M2514.7,-709.9C2401.86,-705.17 2207.93,-694.9 2139,-678 1969.31,-636.4 1964.71,-546.26 1830,-435 1769.75,-385.24 1695.87,-331.26 1654.97,-301.96"/>
<polygon fill="black" stroke="black" points="2514.89,-713.41 2525.03,-710.32 2515.18,-706.41 2514.89,-713.41"/>
<polygon fill="black" stroke="black" points="1656.94,-299.06 1646.76,-296.09 1652.87,-304.76 1656.94,-299.06"/>
<text text-anchor="middle" x="1904.5" y="-492.8" font-family="Times New Roman,serif" font-size="14.00">3</text>
</g>
<!-- Training Grounds&#45;&gt;Reflex Sliver -->
<g id="edge40" class="edge">
<title>Training Grounds&#45;&gt;Reflex Sliver</title>
<path fill="none" stroke="black" d="M2513.75,-712.62C2332.63,-711.28 1921.34,-705.23 1864,-678 1813.81,-654.16 1775.06,-599.52 1755.37,-566.91"/>
<polygon fill="black" stroke="black" points="2513.74,-716.12 2523.77,-712.69 2513.79,-709.12 2513.74,-716.12"/>
<polygon fill="black" stroke="black" points="1758.18,-564.79 1750.1,-557.95 1752.15,-568.34 1758.18,-564.79"/>
<text text-anchor="middle" x="1819.5" y="-623.3" font-family="Times New Roman,serif" font-size="14.00">2</text>
</g>
<!-- Training Grounds&#45;&gt;Manaweft Sliver -->
<g id="edge41" class="edge">
<title>Training Grounds&#45;&gt;Manaweft Sliver</title>
<path fill="none" stroke="black" d="M2513.33,-712.96C2340.08,-712.27 1960.15,-707.37 1909,-678 1837.16,-636.75 1862.71,-583.31 1807,-522 1791.42,-504.85 1771.26,-488.53 1754.49,-476.17"/>
<polygon fill="black" stroke="black" points="2513.42,-716.46 2523.44,-713 2513.45,-709.46 2513.42,-716.46"/>
<polygon fill="black" stroke="black" points="1756.22,-473.11 1746.06,-470.09 1752.12,-478.78 1756.22,-473.11"/>
<text text-anchor="middle" x="1848.5" y="-579.8" font-family="Times New Roman,serif" font-size="14.00">3</text>
</g>
<!-- Training Grounds&#45;&gt;Ashnods Altar -->
<g id="edge44" class="edge">
<title>Training Grounds&#45;&gt;Ashnods Altar</title>
<path fill="none" stroke="black" d="M2564.74,-690.89C2549.88,-679.23 2534.05,-663.49 2526,-645 2519.62,-630.33 2525.55,-624.99 2526,-609 2530.67,-443.25 2547,-402.32 2547,-236.5 2547,-236.5 2547,-236.5 2547,-104 2547,-30.38 2010.97,-20.29 1811.02,-19.09"/>
<polygon fill="black" stroke="black" points="2562.74,-693.77 2572.85,-696.95 2566.93,-688.16 2562.74,-693.77"/>
<polygon fill="black" stroke="black" points="1810.92,-15.58 1800.9,-19.03 1810.88,-22.58 1810.92,-15.58"/>
<text text-anchor="middle" x="2546.5" y="-362.3" font-family="Times New Roman,serif" font-size="14.00">1</text>
</g>
<!-- Training Grounds&#45;&gt;Cloudshredder Sliver -->
<g id="edge45" class="edge">
<title>Training Grounds&#45;&gt;Cloudshredder Sliver</title>
<path fill="none" stroke="black" d="M2524.11,-701.35C2511.94,-696.13 2500.79,-688.66 2493,-678 2438.74,-603.7 2491.66,-563 2491,-471 2490.99,-469.54 2490.98,-262.08 2490,-261 2455.85,-223.06 2133.81,-204 1969.48,-196.68"/>
<polygon fill="black" stroke="black" points="2522.99,-704.66 2533.58,-704.91 2525.45,-698.11 2522.99,-704.66"/>
<polygon fill="black" stroke="black" points="1969.52,-193.18 1959.37,-196.24 1969.21,-200.17 1969.52,-193.18"/>
<text text-anchor="middle" x="2494.5" y="-449.3" font-family="Times New Roman,serif" font-size="14.00">2</text>
</g>
<!-- Training Grounds&#45;&gt;Grinning Ignus -->
<g id="edge34" class="edge">
<title>Training Grounds&#45;&gt;Grinning Ignus</title>
<path fill="none" stroke="black" d="M2513.45,-712.22C2393.81,-708.77 2191,-693.3 2191,-628 2191,-628 2191,-628 2191,-408.5 2191,-366.23 2158.76,-327.02 2134.23,-303.29"/>
<polygon fill="black" stroke="black" points="2513.6,-715.72 2523.69,-712.49 2513.79,-708.73 2513.6,-715.72"/>
<polygon fill="black" stroke="black" points="2136.6,-300.72 2126.91,-296.44 2131.82,-305.83 2136.6,-300.72"/>
<text text-anchor="middle" x="2194.5" y="-492.8" font-family="Times New Roman,serif" font-size="14.00">8</text>
</g>
<!-- Training Grounds&#45;&gt;Cloud Key -->
<g id="edge35" class="edge">
<title>Training Grounds&#45;&gt;Cloud Key</title>
<path fill="none" stroke="black" d="M2517.42,-706.06C2495.34,-700.93 2472.68,-692.32 2455,-678 2435.85,-662.48 2431,-652.65 2431,-628 2431,-628 2431,-628 2431,-365 2431,-345.75 2431,-324.05 2431,-307.4"/>
<polygon fill="black" stroke="black" points="2517,-709.54 2527.5,-708.17 2518.44,-702.69 2517,-709.54"/>
<polygon fill="black" stroke="black" points="2434.5,-307.26 2431,-297.26 2427.5,-307.26 2434.5,-307.26"/>
<text text-anchor="middle" x="2434.5" y="-492.8" font-family="Times New Roman,serif" font-size="14.00">2</text>
</g>
<!-- Training Grounds&#45;&gt;Basalt Monolith -->
<g id="edge27" class="edge">
<title>Training Grounds&#45;&gt;Basalt Monolith</title>
<path fill="none" stroke="black" d="M2524.71,-702.92C2449.43,-690.57 2344,-666.41 2344,-628 2344,-628 2344,-628 2344,-365 2344,-342.37 2330.81,-320.34 2318.11,-304.38"/>
<polygon fill="black" stroke="black" points="2524.23,-706.39 2534.65,-704.51 2525.33,-699.48 2524.23,-706.39"/>
<polygon fill="black" stroke="black" points="2320.7,-302.02 2311.59,-296.61 2315.34,-306.52 2320.7,-302.02"/>
<text text-anchor="middle" x="2347.5" y="-492.8" font-family="Times New Roman,serif" font-size="14.00">4</text>
</g>
<!-- Training Grounds&#45;&gt;Composite Golem -->
<g id="edge47" class="edge">
<title>Training Grounds&#45;&gt;Composite Golem</title>
<path fill="none" stroke="black" d="M2516.49,-708.2C2366.85,-698.39 2066,-673.06 2066,-628 2066,-628 2066,-628 2066,-365 2066,-331.64 2034.65,-310.13 2004.13,-297.1"/>
<polygon fill="black" stroke="black" points="2516.36,-711.7 2526.56,-708.85 2516.81,-704.72 2516.36,-711.7"/>
<polygon fill="black" stroke="black" points="2005.3,-293.8 1994.72,-293.32 2002.69,-300.29 2005.3,-293.8"/>
<text text-anchor="middle" x="2069.5" y="-492.8" font-family="Times New Roman,serif" font-size="14.00">1</text>
</g>
<!-- Palladium Myr -->
<g id="node17" class="node">
<title>Palladium Myr</title>
<ellipse fill="none" stroke="black" cx="2599" cy="-627" rx="63.89" ry="18"/>
<text text-anchor="middle" x="2599" y="-623.3" font-family="Times New Roman,serif" font-size="14.00">Palladium Myr</text>
</g>
<!-- Training Grounds&#45;&gt;Palladium Myr -->
<g id="edge26" class="edge">
<title>Training Grounds&#45;&gt;Palladium Myr</title>
<path fill="none" stroke="black" d="M2599,-685.73C2599,-676.06 2599,-665.17 2599,-655.48"/>
<polygon fill="black" stroke="black" points="2595.5,-685.8 2599,-695.8 2602.5,-685.8 2595.5,-685.8"/>
<polygon fill="black" stroke="black" points="2602.5,-655.18 2599,-645.18 2595.5,-655.18 2602.5,-655.18"/>
<text text-anchor="middle" x="2602.5" y="-666.8" font-family="Times New Roman,serif" font-size="14.00">1</text>
</g>
<!-- Karn, the Great Creator -->
<g id="node18" class="node">
<title>Karn, the Great Creator</title>
<ellipse fill="none" stroke="black" cx="2777" cy="-627" rx="96.38" ry="18"/>
<text text-anchor="middle" x="2777" y="-623.3" font-family="Times New Roman,serif" font-size="14.00">Karn, the Great Creator</text>
</g>
<!-- Training Grounds&#45;&gt;Karn, the Great Creator -->
<g id="edge28" class="edge">
<title>Training Grounds&#45;&gt;Karn, the Great Creator</title>
<path fill="none" stroke="black" d="M2640.58,-693.15C2668.73,-679.7 2705.82,-661.99 2734.22,-648.43"/>
<polygon fill="black" stroke="black" points="2638.75,-690.14 2631.23,-697.61 2641.77,-696.46 2638.75,-690.14"/>
<polygon fill="black" stroke="black" points="2735.98,-651.47 2743.49,-644 2732.96,-645.15 2735.98,-651.47"/>
<text text-anchor="middle" x="2701.5" y="-666.8" font-family="Times New Roman,serif" font-size="14.00">1</text>
</g>
<!-- Toymaker -->
<g id="node19" class="node">
<title>Toymaker</title>
<ellipse fill="none" stroke="black" cx="2939" cy="-627" rx="48.19" ry="18"/>
<text text-anchor="middle" x="2939" y="-623.3" font-family="Times New Roman,serif" font-size="14.00">Toymaker</text>
</g>
<!-- Training Grounds&#45;&gt;Toymaker -->
<g id="edge29" class="edge">
<title>Training Grounds&#45;&gt;Toymaker</title>
<path fill="none" stroke="black" d="M2662.19,-698.85C2719.7,-685.72 2806.85,-665.22 2882,-645 2885.6,-644.03 2889.32,-643 2893.06,-641.94"/>
<polygon fill="black" stroke="black" points="2661.13,-695.5 2652.16,-701.13 2662.68,-702.32 2661.13,-695.5"/>
<polygon fill="black" stroke="black" points="2894.27,-645.23 2902.9,-639.09 2892.32,-638.5 2894.27,-645.23"/>
<text text-anchor="middle" x="2815.5" y="-666.8" font-family="Times New Roman,serif" font-size="14.00">1</text>
</g>
<!-- Karn&#39;s Touch -->
<g id="node20" class="node">
<title>Karn&#39;s Touch</title>
<ellipse fill="none" stroke="black" cx="3066" cy="-627" rx="60.39" ry="18"/>
<text text-anchor="middle" x="3066" y="-623.3" font-family="Times New Roman,serif" font-size="14.00">Karn&#39;s Touch</text>
</g>
<!-- Training Grounds&#45;&gt;Karn&#39;s Touch -->
<g id="edge30" class="edge">
<title>Training Grounds&#45;&gt;Karn&#39;s Touch</title>
<path fill="none" stroke="black" d="M2671.86,-702.48C2751.77,-690.48 2883.6,-669.35 2996,-645 3000.99,-643.92 3006.17,-642.75 3011.35,-641.55"/>
<polygon fill="black" stroke="black" points="2671.27,-699.03 2661.9,-703.97 2672.31,-705.95 2671.27,-699.03"/>
<polygon fill="black" stroke="black" points="3012.33,-644.91 3021.27,-639.21 3010.73,-638.1 3012.33,-644.91"/>
<text text-anchor="middle" x="2901.5" y="-666.8" font-family="Times New Roman,serif" font-size="14.00">1</text>
</g>
<!-- Karn, Silver Golem -->
<g id="node21" class="node">
<title>Karn, Silver Golem</title>
<ellipse fill="none" stroke="black" cx="3225" cy="-627" rx="80.69" ry="18"/>
<text text-anchor="middle" x="3225" y="-623.3" font-family="Times New Roman,serif" font-size="14.00">Karn, Silver Golem</text>
</g>
<!-- Training Grounds&#45;&gt;Karn, Silver Golem -->
<g id="edge31" class="edge">
<title>Training Grounds&#45;&gt;Karn, Silver Golem</title>
<path fill="none" stroke="black" d="M2677.02,-704.9C2739.76,-698.22 2830.13,-688.21 2909,-678 3009.67,-664.97 3034.88,-661.76 3135,-645 3142.01,-643.83 3149.31,-642.55 3156.6,-641.23"/>
<polygon fill="black" stroke="black" points="2676.38,-701.45 2666.81,-705.99 2677.12,-708.41 2676.38,-701.45"/>
<polygon fill="black" stroke="black" points="3157.28,-644.66 3166.48,-639.42 3156.02,-637.78 3157.28,-644.66"/>
<text text-anchor="middle" x="3021.5" y="-666.8" font-family="Times New Roman,serif" font-size="14.00">1</text>
</g>
<!-- Knacksaw Clique -->
<g id="node22" class="node">
<title>Knacksaw Clique</title>
<ellipse fill="none" stroke="black" cx="3398" cy="-627" rx="74.19" ry="18"/>
<text text-anchor="middle" x="3398" y="-623.3" font-family="Times New Roman,serif" font-size="14.00">Knacksaw Clique</text>
</g>
<!-- Training Grounds&#45;&gt;Knacksaw Clique -->
<g id="edge32" class="edge">
<title>Training Grounds&#45;&gt;Knacksaw Clique</title>
<path fill="none" stroke="black" d="M2681.98,-708.57C2815.83,-700.64 3087.43,-681.36 3315,-645 3321.29,-643.99 3327.83,-642.84 3334.35,-641.62"/>
<polygon fill="black" stroke="black" points="2681.58,-705.08 2671.8,-709.16 2681.99,-712.07 2681.58,-705.08"/>
<polygon fill="black" stroke="black" points="3335.39,-644.99 3344.55,-639.66 3334.07,-638.11 3335.39,-644.99"/>
<text text-anchor="middle" x="3181.5" y="-666.8" font-family="Times New Roman,serif" font-size="14.00">1</text>
</g>
<!-- Paradise Mantle -->
<g id="node23" class="node">
<title>Paradise Mantle</title>
<ellipse fill="none" stroke="black" cx="3558" cy="-627" rx="68.49" ry="18"/>
<text text-anchor="middle" x="3558" y="-623.3" font-family="Times New Roman,serif" font-size="14.00">Paradise Mantle</text>
</g>
<!-- Training Grounds&#45;&gt;Paradise Mantle -->
<g id="edge33" class="edge">
<title>Training Grounds&#45;&gt;Paradise Mantle</title>
<path fill="none" stroke="black" d="M2684,-711.41C2842,-707.35 3191.19,-693.23 3481,-645 3486.8,-644.04 3492.81,-642.92 3498.81,-641.72"/>
<polygon fill="black" stroke="black" points="2683.78,-707.91 2673.87,-711.66 2683.96,-714.91 2683.78,-707.91"/>
<polygon fill="black" stroke="black" points="3499.77,-645.1 3508.86,-639.65 3498.36,-638.24 3499.77,-645.1"/>
<text text-anchor="middle" x="3340.5" y="-666.8" font-family="Times New Roman,serif" font-size="14.00">1</text>
</g>
<!-- Signpost Scarecrow -->
<g id="node24" class="node">
<title>Signpost Scarecrow</title>
<ellipse fill="none" stroke="black" cx="3729" cy="-627" rx="84.49" ry="18"/>
<text text-anchor="middle" x="3729" y="-623.3" font-family="Times New Roman,serif" font-size="14.00">Signpost Scarecrow</text>
</g>
<!-- Training Grounds&#45;&gt;Signpost Scarecrow -->
<g id="edge36" class="edge">
<title>Training Grounds&#45;&gt;Signpost Scarecrow</title>
<path fill="none" stroke="black" d="M2683.67,-710.91C2822.59,-707.07 3107.49,-697.42 3348,-678 3475.98,-667.66 3507.98,-663.77 3635,-645 3642.61,-643.88 3650.56,-642.6 3658.46,-641.26"/>
<polygon fill="black" stroke="black" points="2683.42,-707.42 2673.52,-711.19 2683.62,-714.42 2683.42,-707.42"/>
<polygon fill="black" stroke="black" points="3659.16,-644.7 3668.42,-639.55 3657.97,-637.8 3659.16,-644.7"/>
<text text-anchor="middle" x="3504.5" y="-666.8" font-family="Times New Roman,serif" font-size="14.00">3</text>
</g>
<!-- Prismite -->
<g id="node25" class="node">
<title>Prismite</title>
<ellipse fill="none" stroke="black" cx="3872" cy="-627" rx="40.09" ry="18"/>
<text text-anchor="middle" x="3872" y="-623.3" font-family="Times New Roman,serif" font-size="14.00">Prismite</text>
</g>
<!-- Training Grounds&#45;&gt;Prismite -->
<g id="edge37" class="edge">
<title>Training Grounds&#45;&gt;Prismite</title>
<path fill="none" stroke="black" d="M2684.31,-711.66C2845.97,-708.68 3207.99,-699.98 3512,-678 3650.2,-668.01 3686.69,-674.82 3822,-645 3825.46,-644.24 3829.02,-643.32 3832.56,-642.3"/>
<polygon fill="black" stroke="black" points="2683.89,-708.16 2673.95,-711.84 2684.01,-715.16 2683.89,-708.16"/>
<polygon fill="black" stroke="black" points="3833.91,-645.55 3842.43,-639.26 3831.84,-638.86 3833.91,-645.55"/>
<text text-anchor="middle" x="3724.5" y="-666.8" font-family="Times New Roman,serif" font-size="14.00">3</text>
</g>
<!-- Planar Gate -->
<g id="node26" class="node">
<title>Planar Gate</title>
<ellipse fill="none" stroke="black" cx="3983" cy="-627" rx="52.79" ry="18"/>
<text text-anchor="middle" x="3983" y="-623.3" font-family="Times New Roman,serif" font-size="14.00">Planar Gate</text>
</g>
<!-- Training Grounds&#45;&gt;Planar Gate -->
<g id="edge38" class="edge">
<title>Training Grounds&#45;&gt;Planar Gate</title>
<path fill="none" stroke="black" d="M2684.33,-711.93C2911.78,-708.84 3529.07,-698.74 3732,-678 3816.83,-669.33 3837.79,-663.63 3921,-645 3925.34,-644.03 3929.84,-642.95 3934.34,-641.81"/>
<polygon fill="black" stroke="black" points="2684.07,-708.44 2674.12,-712.07 2684.17,-715.44 2684.07,-708.44"/>
<polygon fill="black" stroke="black" points="3935.32,-645.17 3944.11,-639.27 3933.56,-638.4 3935.32,-645.17"/>
<text text-anchor="middle" x="3839.5" y="-666.8" font-family="Times New Roman,serif" font-size="14.00">3</text>
</g>
<!-- Kenrith, the Returned King -->
<g id="node27" class="node">
<title>Kenrith, the Returned King</title>
<ellipse fill="none" stroke="black" cx="4162" cy="-627" rx="107.78" ry="18"/>
<text text-anchor="middle" x="4162" y="-623.3" font-family="Times New Roman,serif" font-size="14.00">Kenrith, the Returned King</text>
</g>
<!-- Training Grounds&#45;&gt;Kenrith, the Returned King -->
<g id="edge46" class="edge">
<title>Training Grounds&#45;&gt;Kenrith, the Returned King</title>
<path fill="none" stroke="black" d="M2684.36,-712.05C2927.5,-709.1 3620.67,-699.05 3847,-678 3928.77,-670.4 4021.53,-654.82 4085.09,-643.06"/>
<polygon fill="black" stroke="black" points="2684.13,-708.55 2674.17,-712.17 2684.21,-715.55 2684.13,-708.55"/>
<polygon fill="black" stroke="black" points="4085.84,-646.48 4095.03,-641.21 4084.56,-639.6 4085.84,-646.48"/>
<text text-anchor="middle" x="3963.5" y="-666.8" font-family="Times New Roman,serif" font-size="14.00">1</text>
</g>
<!-- Skyshroud Elf -->
<g id="node28" class="node">
<title>Skyshroud Elf</title>
<ellipse fill="none" stroke="black" cx="4351" cy="-627" rx="63.09" ry="18"/>
<text text-anchor="middle" x="4351" y="-623.3" font-family="Times New Roman,serif" font-size="14.00">Skyshroud Elf</text>
</g>
<!-- Training Grounds&#45;&gt;Skyshroud Elf -->
<g id="edge48" class="edge">
<title>Training Grounds&#45;&gt;Skyshroud Elf</title>
<path fill="none" stroke="black" d="M2684.58,-713.23C2900.55,-713.28 3485.08,-710.18 3971,-678 4108.37,-668.9 4143.3,-668.2 4279,-645 4284.46,-644.07 4290.12,-642.97 4295.77,-641.78"/>
<polygon fill="black" stroke="black" points="2684.58,-709.73 2674.58,-713.22 2684.58,-716.73 2684.58,-709.73"/>
<polygon fill="black" stroke="black" points="4296.84,-645.13 4305.86,-639.57 4295.34,-638.29 4296.84,-645.13"/>
<text text-anchor="middle" x="4159.5" y="-666.8" font-family="Times New Roman,serif" font-size="14.00">2</text>
</g>
</g>
</svg>
